<svg width="266" height="217" viewBox="0 0 266 217" fill="none" xmlns="http://www.w3.org/2000/svg">
<g opacity="0.2">
<path fill-rule="evenodd" clip-rule="evenodd" d="M176.798 53.8269L179.628 48.2321C180.377 46.7519 180.377 44.9283 179.628 43.4481L176.798 37.8533C176.049 36.3732 174.665 35.4614 173.167 35.4614L167.506 35.4614C166.008 35.4614 164.624 36.3732 163.875 37.8533L161.045 43.4481C160.296 44.9283 160.296 46.7519 161.045 48.2321L163.875 53.8269C164.624 55.307 166.008 56.2188 167.506 56.2188L173.167 56.2188C174.665 56.2188 176.049 55.307 176.798 53.8269ZM181.184 49.2572C182.254 47.1427 182.254 44.5375 181.184 42.423L178.354 36.8282C177.284 34.7137 175.307 33.4111 173.167 33.4111L167.506 33.4111C165.366 33.4111 163.389 34.7137 162.319 36.8282L159.489 42.423C158.419 44.5375 158.419 47.1427 159.489 49.2572L162.319 54.852C163.389 56.9665 165.366 58.2691 167.506 58.2691L173.167 58.2691C175.307 58.2691 177.284 56.9665 178.354 54.852L181.184 49.2572Z" fill="#E93249"/>
<path fill-rule="evenodd" clip-rule="evenodd" d="M186.127 70.9009L197.249 48.9172C198.212 47.0142 198.212 44.6695 197.249 42.7665L186.127 20.7828C185.164 18.8798 183.384 17.7075 181.459 17.7075L159.214 17.7075C157.288 17.7075 155.509 18.8798 154.546 20.7828L143.423 42.7665C142.46 44.6695 142.46 47.0142 143.423 48.9172L154.546 70.9009C155.509 72.8039 157.288 73.9762 159.214 73.9762L181.459 73.9762C183.384 73.9762 185.164 72.8039 186.127 70.9009ZM198.805 49.9424C200.089 47.405 200.089 44.2788 198.805 41.7414L187.683 19.7577C186.399 17.2203 184.026 15.6572 181.459 15.6572L159.214 15.6572C156.646 15.6572 154.274 17.2203 152.99 19.7577L141.867 41.7414C140.584 44.2788 140.584 47.405 141.867 49.9423L152.99 71.926C154.274 74.4634 156.646 76.0265 159.214 76.0265L181.459 76.0265C184.026 76.0265 186.399 74.4634 187.683 71.926L198.805 49.9424Z" fill="#E93249"/>
<path opacity="0.9" fill-rule="evenodd" clip-rule="evenodd" d="M195.456 87.972L214.87 49.5995C216.047 47.2735 216.047 44.4078 214.87 42.0819L195.456 3.70943C194.279 1.38348 192.104 -0.0493627 189.75 -0.0493629L150.922 -0.0493648C148.568 -0.0493649 146.393 1.38348 145.216 3.70942L125.802 42.0819C124.625 44.4078 124.625 47.2735 125.802 49.5995L145.216 87.972C146.393 90.2979 148.568 91.7307 150.922 91.7307L189.75 91.7307C192.104 91.7307 194.279 90.2979 195.456 87.972ZM216.426 50.6246C217.924 47.6643 217.924 44.0171 216.426 41.0568L197.012 2.6843C195.514 -0.275994 192.746 -2.09961 189.75 -2.09961L150.922 -2.09961C147.926 -2.09961 145.158 -0.275998 143.66 2.6843L124.246 41.0568C122.748 44.0171 122.748 47.6643 124.246 50.6246L143.66 88.9971C145.158 91.9574 147.926 93.781 150.922 93.781L189.75 93.781C192.746 93.781 195.514 91.9574 197.012 88.9971L216.426 50.6246Z" fill="#E93249"/>
<path opacity="0.75" fill-rule="evenodd" clip-rule="evenodd" d="M204.788 105.045L232.495 50.2837C233.885 47.5348 233.885 44.1481 232.495 41.3993L204.788 -13.362C203.398 -16.1109 200.827 -17.8042 198.046 -17.8042L142.633 -17.8042C139.852 -17.8042 137.282 -16.1109 135.891 -13.362L108.185 41.3993C106.794 44.1481 106.794 47.5348 108.185 50.2837L135.891 105.045C137.282 107.794 139.852 109.487 142.633 109.487L198.046 109.487C200.827 109.487 203.398 107.794 204.788 105.045ZM234.051 51.3088C235.762 47.9256 235.762 43.7573 234.051 40.3741L206.344 -14.3872C204.633 -17.7704 201.469 -19.8545 198.046 -19.8545L142.633 -19.8545C139.21 -19.8545 136.047 -17.7704 134.335 -14.3872L106.629 40.3741C104.917 43.7573 104.917 47.9256 106.629 51.3088L134.335 106.07C136.047 109.453 139.21 111.537 142.633 111.537L198.046 111.537C201.469 111.537 204.633 109.453 206.344 106.07L234.051 51.3088Z" fill="#E93249"/>
<path opacity="0.6" fill-rule="evenodd" clip-rule="evenodd" d="M214.465 121.433L249.771 51.6493C251.59 48.0547 251.59 43.6259 249.771 40.0313L214.465 -29.752C212.646 -33.3467 209.285 -35.5611 205.648 -35.5611L135.035 -35.5611C131.397 -35.5611 128.036 -33.3467 126.217 -29.7521L90.9108 40.0313C89.0921 43.6259 89.0921 48.0547 90.9108 51.6493L126.217 121.433C128.036 125.027 131.397 127.242 135.035 127.242L205.648 127.242C209.285 127.242 212.646 125.027 214.465 121.433ZM251.327 52.6745C253.467 48.4455 253.467 43.2351 251.327 39.0061L216.021 -30.7772C213.881 -35.0062 209.927 -37.6113 205.648 -37.6113L135.035 -37.6113C130.755 -37.6113 126.801 -35.0062 124.661 -30.7772L89.3548 39.0061C87.2152 43.2351 87.2152 48.4455 89.3548 52.6745L124.661 122.458C126.801 126.687 130.755 129.292 135.035 129.292L205.648 129.292C209.927 129.292 213.881 126.687 216.021 122.458L251.327 52.6745Z" fill="#E93249"/>
<path opacity="0.5" fill-rule="evenodd" clip-rule="evenodd" d="M223.446 139.191L267.736 51.6521C269.555 48.0574 269.555 43.6287 267.736 40.034L223.446 -47.505C221.628 -51.0996 218.267 -53.314 214.629 -53.314L126.049 -53.314C122.412 -53.314 119.051 -51.0996 117.232 -47.505L72.942 40.034C71.1233 43.6286 71.1233 48.0574 72.942 51.6521L117.232 139.191C119.051 142.786 122.412 145 126.049 145L214.629 145C218.267 145 221.628 142.786 223.446 139.191ZM269.292 52.6772C271.432 48.4482 271.432 43.2379 269.292 39.0089L225.002 -48.5301C222.863 -52.7591 218.908 -55.3643 214.629 -55.3643L126.049 -55.3643C121.77 -55.3643 117.816 -52.7591 115.676 -48.5301L71.386 39.0089C69.2464 43.2379 69.2464 48.4482 71.386 52.6772L115.676 140.216C117.816 144.445 121.77 147.05 126.049 147.05L214.629 147.05C218.908 147.05 222.863 144.445 225.002 140.216L269.292 52.6772Z" fill="#E93249"/>
<path opacity="0.4" fill-rule="evenodd" clip-rule="evenodd" d="M234.505 152.845L283.629 55.7514C286.731 49.6193 286.731 42.0644 283.629 35.9323L234.505 -61.1613C231.402 -67.2934 225.669 -71.0708 219.464 -71.0708L121.216 -71.0709C115.011 -71.0709 109.277 -67.2934 106.174 -61.1613L57.0504 35.9323C53.9479 42.0643 53.9479 49.6193 57.0504 55.7514L106.174 152.845C109.277 158.977 115.011 162.755 121.216 162.755L219.464 162.755C225.669 162.755 231.402 158.977 234.505 152.845ZM285.185 56.7765C288.608 50.0101 288.608 41.6736 285.185 34.9072L236.061 -62.1864C232.637 -68.9528 226.311 -73.1211 219.464 -73.1211L121.216 -73.1211C114.369 -73.1211 108.042 -68.9528 104.618 -62.1865L55.4944 34.9072C52.071 41.6736 52.071 50.0101 55.4944 56.7765L104.618 153.87C108.042 160.637 114.369 164.805 121.216 164.805L219.464 164.805C226.311 164.805 232.637 160.637 236.061 153.87L285.185 56.7765Z" fill="#E93249"/>
<path opacity="0.3" fill-rule="evenodd" clip-rule="evenodd" d="M243.49 170.601L301.598 55.7512C304.7 49.6192 304.7 42.0642 301.598 35.9322L243.49 -78.9172C240.388 -85.0492 234.654 -88.8267 228.449 -88.8267L112.234 -88.8267C106.029 -88.8267 100.295 -85.0492 97.193 -78.9172L39.0855 35.9321C35.983 42.0642 35.983 49.6192 39.0855 55.7512L97.193 170.601C100.295 176.733 106.029 180.51 112.234 180.51L228.449 180.51C234.654 180.51 240.388 176.733 243.49 170.601ZM303.154 56.7763C306.577 50.0099 306.577 41.6734 303.154 34.907L245.046 -79.9423C241.623 -86.7087 235.296 -90.877 228.449 -90.877L112.234 -90.877C105.387 -90.877 99.0605 -86.7087 95.637 -79.9423L37.5295 34.907C34.1061 41.6734 34.1061 50.0099 37.5295 56.7763L95.637 171.626C99.0604 178.392 105.387 182.56 112.234 182.56L228.449 182.56C235.296 182.56 241.623 178.392 245.046 171.626L303.154 56.7763Z" fill="#E93249"/>
<path opacity="0.2" fill-rule="evenodd" clip-rule="evenodd" d="M253.854 185.622L318.178 58.4847C322.137 50.661 322.137 41.0219 318.178 33.1983L253.854 -93.9394C249.895 -101.763 242.58 -106.583 234.663 -106.583L106.014 -106.583C98.0972 -106.583 90.7819 -101.763 86.8236 -93.9394L22.4988 33.1983C18.5405 41.0219 18.5405 50.661 22.4988 58.4846L86.8236 185.622C90.7819 193.446 98.0972 198.265 106.014 198.265L234.663 198.265C242.58 198.265 249.895 193.446 253.854 185.622ZM319.734 59.5098C324.014 51.0518 324.014 40.6311 319.734 32.1732L255.41 -94.9645C251.13 -103.422 243.222 -108.633 234.663 -108.633L106.014 -108.633C97.4553 -108.633 89.5469 -103.422 85.2676 -94.9645L20.9429 32.1731C16.6636 40.6311 16.6636 51.0518 20.9429 59.5098L85.2676 186.647C89.5469 195.105 97.4553 200.316 106.014 200.316L234.663 200.316C243.222 200.316 251.13 195.105 255.41 186.647L319.734 59.5098Z" fill="#E93249"/>
<path opacity="0.1" fill-rule="evenodd" clip-rule="evenodd" d="M262.239 202.193L334.948 58.4834C338.906 50.6597 338.906 41.0206 334.948 33.197L262.239 -110.513C258.28 -118.336 250.965 -123.156 243.048 -123.156L97.6299 -123.156C89.7132 -123.156 82.3979 -118.336 78.4396 -110.513L5.73034 33.197C1.77197 41.0206 1.77197 50.6597 5.73034 58.4834L78.4396 202.193C82.3979 210.017 89.7132 214.836 97.6299 214.836L243.048 214.836C250.965 214.836 258.28 210.017 262.239 202.193ZM336.504 59.5085C340.783 51.0505 340.783 40.6298 336.504 32.1719L263.795 -111.538C259.515 -119.996 251.607 -125.206 243.048 -125.206L97.6299 -125.206C89.0713 -125.206 81.1629 -119.996 76.8836 -111.538L4.17434 32.1718C-0.104926 40.6298 -0.104926 51.0505 4.17434 59.5085L76.8836 203.218C81.1629 211.676 89.0713 216.886 97.6299 216.886L243.048 216.886C251.607 216.886 259.515 211.676 263.795 203.218L336.504 59.5085Z" fill="#E93249"/>
</g>
</svg>
