<svg width="37" height="45" viewBox="0 0 37 45" fill="none" xmlns="http://www.w3.org/2000/svg">
<path d="M0.470378 7.64101C0.179501 7.13969 0.179501 6.52095 0.470378 6.01963L3.49645 0.804199C3.78547 0.306089 4.3178 -0.000492235 4.89368 -0.000492235L32.1068 -0.000492235C32.6827 -0.000492235 33.215 0.306089 33.504 0.804198L36.5301 6.01963C36.821 6.52095 36.821 7.13969 36.5301 7.64101L33.504 12.8564C33.215 13.3546 32.6827 13.6611 32.1068 13.6611L4.89368 13.6611C4.3178 13.6611 3.78546 13.3546 3.49645 12.8564L0.470378 7.64101Z" fill="#080B16"/>
<path d="M0.46764 23.0091C0.178326 22.5088 0.178326 21.8921 0.46764 21.3918L3.48363 16.1763C3.77234 15.6771 4.30531 15.3696 4.88203 15.3696L17.8875 15.3696C18.4642 15.3696 18.9972 15.6771 19.2859 16.1763L22.3019 21.3918C22.5912 21.8921 22.5912 22.5088 22.3019 23.0091L19.2859 28.2245C18.9972 28.7238 18.4642 29.0312 17.8875 29.0312H4.88203C4.30531 29.0312 3.77234 28.7238 3.48363 28.2245L0.46764 23.0091Z" fill="#080B16"/>
<path d="M0.474807 38.3826C0.181405 37.8796 0.181404 37.2576 0.474807 36.7547L3.51716 31.5392C3.80665 31.043 4.33795 30.7378 4.91249 30.7378H11.0262C11.6007 30.7378 12.132 31.043 12.4215 31.5392L15.4639 36.7547C15.7573 37.2576 15.7573 37.8796 15.4639 38.3826L12.4215 43.598C12.132 44.0943 11.6007 44.3994 11.0262 44.3994H4.91249C4.33795 44.3994 3.80665 44.0943 3.51716 43.598L0.474807 38.3826Z" fill="#080B16"/>
</svg>
