<svg width="102" height="47" viewBox="0 0 102 47" fill="none" xmlns="http://www.w3.org/2000/svg">
<path d="M3.14014 5.82915C3.71121 2.46306 6.62734 0 10.0415 0H91.9581C95.3723 0 98.2884 2.46307 98.8595 5.82915L101.794 23.1251C101.93 23.9284 101.925 24.7493 101.779 25.5508L98.9174 41.2549C98.3112 44.5821 95.4128 47 92.0308 47H9.9688C6.58683 47 3.68848 44.5821 3.0822 41.2549L0.22059 25.5509C0.0745293 24.7493 0.0695262 23.9284 0.205805 23.1251L3.14014 5.82915Z" fill="url(#paint0_linear_2002_7304)" fill-opacity="0.4"/>
<path d="M10.0418 0.5H91.9578C95.029 0.5 97.6664 2.64634 98.3104 5.62207L98.367 5.91309L101.301 23.209C101.411 23.8617 101.422 24.5269 101.332 25.1816L101.287 25.4609L98.4256 41.165C97.8626 44.2545 95.1714 46.4999 92.0311 46.5H9.96857C6.92629 46.4999 4.30516 44.3928 3.63263 41.4521L3.57404 41.165L0.712708 25.4609C0.59408 24.8098 0.575042 24.1449 0.657043 23.4893L0.699036 23.209L3.63263 5.91309C4.16291 2.78743 6.87149 0.5 10.0418 0.5Z" stroke="url(#paint1_linear_2002_7304)" stroke-opacity="0.4"/>
<defs>
<linearGradient id="paint0_linear_2002_7304" x1="5.32817" y1="40.2857" x2="103.215" y2="34.6934" gradientUnits="userSpaceOnUse">
<stop stop-color="#038B98" stop-opacity="0.63"/>
<stop offset="0.703125" stop-color="#0FFB49" stop-opacity="0.59"/>
</linearGradient>
<linearGradient id="paint1_linear_2002_7304" x1="5.32817" y1="40.2857" x2="103.215" y2="34.6934" gradientUnits="userSpaceOnUse">
<stop stop-color="#038B98" stop-opacity="0.63"/>
<stop offset="0.703125" stop-color="#0FFB49" stop-opacity="0.59"/>
</linearGradient>
</defs>
</svg>
