<svg width="102" height="47" viewBox="0 0 102 47" fill="none" xmlns="http://www.w3.org/2000/svg">
<path d="M10.0419 0.5H91.9579C95.0291 0.5 97.6665 2.64634 98.3105 5.62207L98.3671 5.91309L101.301 23.209C101.411 23.8617 101.422 24.5269 101.332 25.1816L101.287 25.4609L98.4257 41.165C97.8627 44.2545 95.1715 46.4999 92.0312 46.5H9.96866C6.92638 46.4999 4.30525 44.3928 3.63272 41.4521L3.57413 41.165L0.712799 25.4609C0.594172 24.8098 0.575134 24.1449 0.657135 23.4893L0.699127 23.209L3.63272 5.91309C4.14644 2.88505 6.7043 0.64386 9.746 0.506836L10.0419 0.5Z" fill="url(#paint0_linear_2002_7287)" fill-opacity="0.4" stroke="url(#paint1_linear_2002_7287)"/>
<defs>
<linearGradient id="paint0_linear_2002_7287" x1="5.32827" y1="40.2857" x2="103.215" y2="34.6934" gradientUnits="userSpaceOnUse">
<stop stop-color="#980365" stop-opacity="0.63"/>
<stop offset="0.703125" stop-color="#FF8BD1" stop-opacity="0.59"/>
</linearGradient>
<linearGradient id="paint1_linear_2002_7287" x1="50.9999" y1="0" x2="50.9999" y2="47" gradientUnits="userSpaceOnUse">
<stop stop-color="#FF00D6" stop-opacity="0.55"/>
<stop offset="1" stop-color="#FFBCE4" stop-opacity="0.62"/>
</linearGradient>
</defs>
</svg>
