<svg width="332" height="147" viewBox="0 0 332 147" fill="none" xmlns="http://www.w3.org/2000/svg">
<g filter="url(#filter0_d_133_47392)">
<path d="M47.0006 71.3036C47.0003 56.2243 59.2243 44 74.3036 44H257.696C272.776 44 285 56.2242 285 71.3036C285 84.943 273.943 96 260.304 96H71.6964C58.0571 96 47.0003 84.9429 47.0006 71.3036Z" fill="url(#paint0_linear_133_47392)" fill-opacity="0.1" shape-rendering="crispEdges"/>
<path d="M74.3037 44.5H257.696C272.5 44.5 284.5 56.5005 284.5 71.3037C284.5 84.6669 273.667 95.4999 260.304 95.5H71.6963C58.3332 95.4999 47.5007 84.6668 47.501 71.3037C47.5006 56.5006 59.5006 44.5 74.3037 44.5Z" stroke="url(#paint1_linear_133_47392)" shape-rendering="crispEdges"/>
</g>
<defs>
<filter id="filter0_d_133_47392" x="0.0287666" y="0.159726" width="331.943" height="145.943" filterUnits="userSpaceOnUse" color-interpolation-filters="sRGB">
<feFlood flood-opacity="0" result="BackgroundImageFix"/>
<feColorMatrix in="SourceAlpha" type="matrix" values="0 0 0 0 0 0 0 0 0 0 0 0 0 0 0 0 0 0 127 0" result="hardAlpha"/>
<feOffset dy="3.13145"/>
<feGaussianBlur stdDeviation="23.4859"/>
<feComposite in2="hardAlpha" operator="out"/>
<feColorMatrix type="matrix" values="0 0 0 0 0.0509804 0 0 0 0 0.247059 0 0 0 0 0.180392 0 0 0 0.5 0"/>
<feBlend mode="normal" in2="BackgroundImageFix" result="effect1_dropShadow_133_47392"/>
<feBlend mode="normal" in="SourceGraphic" in2="effect1_dropShadow_133_47392" result="shape"/>
</filter>
<linearGradient id="paint0_linear_133_47392" x1="59.4328" y1="88.5714" x2="285.301" y2="61.357" gradientUnits="userSpaceOnUse">
<stop stop-color="#038B98" stop-opacity="0.63"/>
<stop offset="0.703125" stop-color="#0FFB49" stop-opacity="0.59"/>
</linearGradient>
<linearGradient id="paint1_linear_133_47392" x1="166" y1="44" x2="166" y2="96" gradientUnits="userSpaceOnUse">
<stop stop-color="#14FF00" stop-opacity="0.55"/>
<stop offset="1" stop-color="#00F0FF" stop-opacity="0.62"/>
</linearGradient>
</defs>
</svg>
