<svg width="44" height="44" viewBox="0 0 44 44" fill="none" xmlns="http://www.w3.org/2000/svg">
<path d="M42.4121 20.25C43.0373 21.3329 43.0373 22.6671 42.4121 23.75L33.7217 38.8027C33.0964 39.8856 31.9408 40.5527 30.6904 40.5527L13.3096 40.5527C12.0592 40.5527 10.9036 39.8856 10.2783 38.8027L1.58789 23.75C0.962675 22.6671 0.962675 21.3329 1.58789 20.25L10.2783 5.19726C10.9036 4.11444 12.0592 3.44726 13.3096 3.44726L30.6904 3.44727C31.9408 3.44727 33.0964 4.11444 33.7217 5.19727L42.4121 20.25Z" fill="url(#paint0_linear_1169_25091)" fill-opacity="0.4" stroke="url(#paint1_linear_1169_25091)"/>
<path d="M25.2814 25.2814C23.4691 27.0937 20.5309 27.0937 18.7186 25.2814M31.2812 22C31.2812 27.1259 27.1259 31.2812 22 31.2812C16.8741 31.2812 12.7188 27.1259 12.7188 22C12.7188 16.8741 16.8741 12.7188 22 12.7188C27.1259 12.7188 31.2812 16.8741 31.2812 22ZM19.6797 19.6797C19.6797 19.7776 19.5143 19.8948 19.3007 19.8948C19.0871 19.8948 18.9062 19.7817 18.9062 19.6797C18.9062 19.5776 19.0871 19.5508 19.3007 19.5508C19.5143 19.5508 19.6797 19.6099 19.6797 19.6797ZM19.293 19.6797H19.3007V19.6952H19.293V19.6797ZM25.0938 19.6797C25.0938 20.1068 24.9206 20.4531 24.707 20.4531C24.4935 20.4531 24.3203 20.1068 24.3203 19.6797C24.3203 19.2525 24.4935 18.9062 24.707 18.9062C24.9206 18.9062 25.0938 19.2525 25.0938 19.6797ZM24.707 19.6797H24.7148V19.6952H24.707V19.6797Z" stroke="white" stroke-width="1.5" stroke-linecap="round" stroke-linejoin="round"/>
<defs>
<linearGradient id="paint0_linear_1169_25091" x1="6.28572" y1="2.29851" x2="7.40016" y2="44.6325" gradientUnits="userSpaceOnUse">
<stop stop-color="#038B98" stop-opacity="0.63"/>
<stop offset="0.703125" stop-color="#0FFB49" stop-opacity="0.59"/>
</linearGradient>
<linearGradient id="paint1_linear_1169_25091" x1="44" y1="22" x2="-9.61651e-07" y2="22" gradientUnits="userSpaceOnUse">
<stop stop-color="#14FF00" stop-opacity="0.55"/>
<stop offset="1" stop-color="#00F0FF" stop-opacity="0.62"/>
</linearGradient>
</defs>
</svg>
