<svg width="32" height="32" viewBox="0 0 32 32" fill="none" xmlns="http://www.w3.org/2000/svg">
<path d="M30.4121 14.25C30.9982 15.2651 31.0352 16.5012 30.5225 17.5439L30.4121 17.75L24.7217 27.6064C24.0965 28.6893 22.9408 29.3564 21.6904 29.3564L10.3096 29.3564C9.05915 29.3564 7.90354 28.6893 7.27832 27.6064L1.58789 17.75C0.962674 16.6671 0.962675 15.3329 1.58789 14.25L7.27832 4.39355C7.90354 3.31067 9.05915 2.64355 10.3096 2.64355L21.6904 2.64355C22.9408 2.64355 24.0965 3.31067 24.7217 4.39355L30.4121 14.25Z" fill="url(#paint0_linear_1144_21657)" fill-opacity="0.4" stroke="url(#paint1_linear_1144_21657)"/>
<g clip-path="url(#clip0_1144_21657)">
<path d="M11.9448 11.8926C11.6186 11.3276 10.8962 11.134 10.3312 11.4602C9.76621 11.7864 9.57263 12.5088 9.89882 13.0738L11.0238 15.0224M11.9448 11.8926L11.3823 10.9183C11.0561 10.3533 11.2497 9.63087 11.8147 9.30468C12.3797 8.97849 13.1021 9.17207 13.4283 9.73705L13.9908 10.7113M11.9448 11.8926L14.2154 15.7129M16.4939 15.0469L13.9908 10.7113M13.9908 10.7113C13.6646 10.1463 13.8582 9.4239 14.4232 9.09771C14.9882 8.77151 15.7106 8.96509 16.0368 9.53007L19.9462 16.3013M11.0238 15.0224C10.6976 14.4574 9.97518 14.2638 9.4102 14.59C8.84522 14.9162 8.65164 15.6387 8.97783 16.2036L12.0435 21.5135C13.4414 23.9348 16.5376 24.7644 18.959 23.3665L20.2696 22.6098C21.174 22.0876 21.8339 21.2276 22.1042 20.2189L22.5797 18.4443C22.85 17.4356 22.7085 16.3608 22.1863 15.4564L21.4294 14.1407C21.3654 14.0278 21.3452 13.8943 21.381 13.7605C21.5499 13.1303 21.1759 12.4826 20.5457 12.3138C19.9156 12.1449 19.2679 12.5189 19.099 13.149C18.8954 13.909 19.0178 14.6818 19.3787 15.3139M11.0238 15.0224L12.6832 17.8965M18.3749 18.3499C18.482 17.9505 18.6563 17.5871 18.8826 17.2686C19.1659 16.8698 19.5306 16.5415 19.9462 16.3013M19.9474 16.3006L19.9462 16.3013" stroke="white" stroke-width="1.12" stroke-linecap="round" stroke-linejoin="round"/>
</g>
<defs>
<linearGradient id="paint0_linear_1144_21657" x1="4.57143" y1="1.67164" x2="5.38194" y2="32.46" gradientUnits="userSpaceOnUse">
<stop stop-color="#038B98" stop-opacity="0.63"/>
<stop offset="0.703125" stop-color="#0FFB49" stop-opacity="0.59"/>
</linearGradient>
<linearGradient id="paint1_linear_1144_21657" x1="32" y1="16" x2="-6.99382e-07" y2="16" gradientUnits="userSpaceOnUse">
<stop stop-color="#14FF00" stop-opacity="0.55"/>
<stop offset="1" stop-color="#00F0FF" stop-opacity="0.62"/>
</linearGradient>
<clipPath id="clip0_1144_21657">
<rect width="18" height="18" fill="white" transform="translate(7 7)"/>
</clipPath>
</defs>
</svg>
