<svg width="32" height="32" viewBox="0 0 32 32" fill="none" xmlns="http://www.w3.org/2000/svg">
<path d="M30.4121 14.25C30.9982 15.2651 31.0352 16.5012 30.5225 17.5439L30.4121 17.75L24.7217 27.6064C24.0965 28.6893 22.9408 29.3564 21.6904 29.3564L10.3096 29.3564C9.05915 29.3564 7.90354 28.6893 7.27832 27.6064L1.58789 17.75C0.962674 16.6671 0.962675 15.3329 1.58789 14.25L7.27832 4.39355C7.90354 3.31067 9.05915 2.64355 10.3096 2.64355L21.6904 2.64355C22.9408 2.64355 24.0965 3.31067 24.7217 4.39355L30.4121 14.25Z" fill="url(#paint0_linear_1144_9334)" fill-opacity="0.4" stroke="url(#paint1_linear_1144_9334)"/>
<path d="M10.5 23H21.5M14 19V23M18 19V23M9 10V18C9 18.2652 9.10536 18.5196 9.29289 18.7071C9.48043 18.8946 9.73478 19 10 19H22C22.2652 19 22.5196 18.8946 22.7071 18.7071C22.8946 18.5196 23 18.2652 23 18V10C23 9.73478 22.8946 9.48043 22.7071 9.29289C22.5196 9.10536 22.2652 9 22 9H10C9.73478 9 9.48043 9.10536 9.29289 9.29289C9.10536 9.48043 9 9.73478 9 10Z" stroke="white"/>
<defs>
<linearGradient id="paint0_linear_1144_9334" x1="4.57143" y1="1.67164" x2="5.38194" y2="32.46" gradientUnits="userSpaceOnUse">
<stop stop-color="#038B98" stop-opacity="0.63"/>
<stop offset="0.703125" stop-color="#0FFB49" stop-opacity="0.59"/>
</linearGradient>
<linearGradient id="paint1_linear_1144_9334" x1="32" y1="16" x2="-6.99382e-07" y2="16" gradientUnits="userSpaceOnUse">
<stop stop-color="#14FF00" stop-opacity="0.55"/>
<stop offset="1" stop-color="#00F0FF" stop-opacity="0.62"/>
</linearGradient>
</defs>
</svg>
