<svg width="16" height="16" viewBox="0 0 16 16" fill="none" xmlns="http://www.w3.org/2000/svg">
<path d="M1.60859 0.803595C1.41004 0.745916 1.19584 0.801816 1.0508 0.949169C0.905755 1.09652 0.853242 1.31157 0.914048 1.50919L2.73826 7.43787H9.12506C9.43572 7.43787 9.68756 7.68971 9.68756 8.00037C9.68756 8.31103 9.43572 8.56287 9.12506 8.56287H2.73826L0.914117 14.4913C0.853311 14.689 0.905824 14.904 1.05087 15.0514C1.19592 15.1987 1.41011 15.2546 1.60866 15.1969C6.63261 13.7375 11.2981 11.4364 15.4425 8.4569C15.5895 8.35122 15.6767 8.18123 15.6767 8.00018C15.6767 7.81913 15.5895 7.64914 15.4425 7.54346C11.2981 4.56399 6.63255 2.26302 1.60859 0.803595Z" fill="url(#paint0_linear_879_4785)"/>
<defs>
<linearGradient id="paint0_linear_879_4785" x1="8.28291" y1="0.78125" x2="8.28291" y2="15.2193" gradientUnits="userSpaceOnUse">
<stop stop-color="#14FF00" stop-opacity="0.55"/>
<stop offset="1" stop-color="#00F0FF" stop-opacity="0.62"/>
</linearGradient>
</defs>
</svg>
