<svg width="319" height="30" viewBox="0 0 319 30" fill="none" xmlns="http://www.w3.org/2000/svg">
<g clip-path="url(#clip0_941_27279)">
<rect width="2" height="25" transform="matrix(1 0 0 -1 -0.5 27.5)" fill="url(#paint0_linear_941_27279)"/>
<rect width="2" height="19" transform="matrix(1 0 0 -1 5.5 24.5)" fill="url(#paint1_linear_941_27279)"/>
<rect width="2" height="15" transform="matrix(1 0 0 -1 11.5 22.5)" fill="url(#paint2_linear_941_27279)"/>
<rect width="2" height="21" transform="matrix(1 0 0 -1 17.5 25.5)" fill="url(#paint3_linear_941_27279)"/>
<rect width="2" height="15" transform="matrix(1 0 0 -1 23.5 22.5)" fill="url(#paint4_linear_941_27279)"/>
<rect width="2" height="11" transform="matrix(1 0 0 -1 29.5 20.5)" fill="url(#paint5_linear_941_27279)"/>
<rect width="2" height="13" transform="matrix(1 0 0 -1 35.5 21.5)" fill="url(#paint6_linear_941_27279)"/>
<rect width="2" height="9" transform="matrix(1 0 0 -1 41.5 19.5)" fill="url(#paint7_linear_941_27279)"/>
<rect width="2" height="7" transform="matrix(1 0 0 -1 47.5 18.5)" fill="url(#paint8_linear_941_27279)"/>
<rect width="2" height="11" transform="matrix(1 0 0 -1 53.5 20.5)" fill="url(#paint9_linear_941_27279)"/>
<rect width="2" height="23" transform="matrix(1 0 0 -1 59.5 26.5)" fill="url(#paint10_linear_941_27279)"/>
<rect width="2" height="29" transform="matrix(1 0 0 -1 65.5 29.5)" fill="url(#paint11_linear_941_27279)"/>
<rect width="2" height="31" transform="matrix(1 0 0 -1 71.5 30.5)" fill="url(#paint12_linear_941_27279)"/>
<rect width="2" height="25" transform="matrix(1 0 0 -1 77.5 27.5)" fill="url(#paint13_linear_941_27279)"/>
<rect width="2" height="19" transform="matrix(1 0 0 -1 83.5 24.5)" fill="url(#paint14_linear_941_27279)"/>
<rect width="2" height="15" transform="matrix(1 0 0 -1 89.5 22.5)" fill="url(#paint15_linear_941_27279)"/>
<rect width="2" height="21" transform="matrix(1 0 0 -1 95.5 25.5)" fill="url(#paint16_linear_941_27279)"/>
<rect width="2" height="15" transform="matrix(1 0 0 -1 101.5 22.5)" fill="url(#paint17_linear_941_27279)"/>
<rect width="2" height="11" transform="matrix(1 0 0 -1 107.5 20.5)" fill="url(#paint18_linear_941_27279)"/>
<rect width="2" height="9" transform="matrix(-1 -1.00131e-07 -7.63273e-08 1 115.5 10.5)" fill="url(#paint19_linear_941_27279)"/>
<rect width="2" height="13" transform="matrix(-1 -1.00131e-07 -7.63273e-08 1 121.5 8.5)" fill="url(#paint20_linear_941_27279)"/>
<rect width="2" height="11" transform="matrix(-1 -1.00131e-07 -7.63273e-08 1 127.5 9.5)" fill="url(#paint21_linear_941_27279)"/>
<rect width="2" height="15" transform="matrix(-1 -1.00131e-07 -7.63273e-08 1 133.5 7.5)" fill="url(#paint22_linear_941_27279)"/>
<rect width="2" height="21" transform="matrix(-1 -1.00131e-07 -7.63273e-08 1 139.5 4.5)" fill="url(#paint23_linear_941_27279)"/>
<rect width="2" height="15" transform="matrix(-1 -1.00131e-07 -7.63273e-08 1 145.5 7.5)" fill="url(#paint24_linear_941_27279)"/>
<rect width="2" height="9" transform="matrix(-1 -1.00131e-07 -7.63273e-08 1 151.5 10.5)" fill="url(#paint25_linear_941_27279)"/>
<rect width="2" height="13" transform="matrix(-1 -1.00131e-07 -7.63273e-08 1 157.5 8.5)" fill="url(#paint26_linear_941_27279)"/>
<rect x="163.5" y="28.5" width="2" height="27" transform="rotate(-180 163.5 28.5)" fill="url(#paint27_linear_941_27279)"/>
<path d="M169.5 26.5L167.5 26.5L167.5 3.5L169.5 3.5L169.5 26.5Z" fill="url(#paint28_linear_941_27279)"/>
<rect x="175.5" y="23.5" width="2" height="17" transform="rotate(-180 175.5 23.5)" fill="url(#paint29_linear_941_27279)"/>
<rect x="181.5" y="21.5" width="2" height="13" transform="rotate(-180 181.5 21.5)" fill="url(#paint30_linear_941_27279)"/>
<rect x="187.5" y="24.5" width="2" height="19" transform="rotate(-180 187.5 24.5)" fill="url(#paint31_linear_941_27279)"/>
<rect x="193.5" y="21.5" width="2" height="13" transform="rotate(-180 193.5 21.5)" fill="url(#paint32_linear_941_27279)"/>
<rect x="199.5" y="19.5" width="2" height="9" transform="rotate(-180 199.5 19.5)" fill="url(#paint33_linear_941_27279)"/>
<rect x="205.5" y="20.5" width="2" height="11" transform="rotate(-180 205.5 20.5)" fill="url(#paint34_linear_941_27279)"/>
<rect x="211.5" y="18.5" width="2" height="7" transform="rotate(-180 211.5 18.5)" fill="url(#paint35_linear_941_27279)"/>
<rect x="217.5" y="17.5" width="2" height="5" transform="rotate(-180 217.5 17.5)" fill="url(#paint36_linear_941_27279)"/>
<rect x="223.5" y="19.5" width="2" height="9" transform="rotate(-180 223.5 19.5)" fill="url(#paint37_linear_941_27279)"/>
<rect x="229.5" y="25.5" width="2" height="21" transform="rotate(-180 229.5 25.5)" fill="url(#paint38_linear_941_27279)"/>
<rect x="235.5" y="28.5" width="2" height="27" transform="rotate(-180 235.5 28.5)" fill="url(#paint39_linear_941_27279)"/>
<rect x="241.5" y="28.5" width="2" height="27" transform="rotate(-180 241.5 28.5)" fill="url(#paint40_linear_941_27279)"/>
<rect x="247.5" y="26.5" width="2" height="23" transform="rotate(-180 247.5 26.5)" fill="url(#paint41_linear_941_27279)"/>
<rect x="253.5" y="23.5" width="2" height="17" transform="rotate(-180 253.5 23.5)" fill="url(#paint42_linear_941_27279)"/>
<rect x="259.5" y="21.5" width="2" height="13" transform="rotate(-180 259.5 21.5)" fill="url(#paint43_linear_941_27279)"/>
<rect x="265.5" y="24.5" width="2" height="19" transform="rotate(-180 265.5 24.5)" fill="url(#paint44_linear_941_27279)"/>
<rect x="271.5" y="21.5" width="2" height="13" transform="rotate(-180 271.5 21.5)" fill="url(#paint45_linear_941_27279)"/>
<rect x="277.5" y="19.5" width="2" height="9" transform="rotate(-180 277.5 19.5)" fill="url(#paint46_linear_941_27279)"/>
<rect x="283.5" y="20.5" width="2" height="11" transform="rotate(-180 283.5 20.5)" fill="url(#paint47_linear_941_27279)"/>
<rect x="289.5" y="18.5" width="2" height="7" transform="rotate(-180 289.5 18.5)" fill="url(#paint48_linear_941_27279)"/>
<rect x="295.5" y="21.5" width="2" height="13" transform="rotate(-180 295.5 21.5)" fill="url(#paint49_linear_941_27279)"/>
<rect x="301.5" y="24.5" width="2" height="19" transform="rotate(-180 301.5 24.5)" fill="url(#paint50_linear_941_27279)"/>
<rect x="307.5" y="21.5" width="2" height="13" transform="rotate(-180 307.5 21.5)" fill="url(#paint51_linear_941_27279)"/>
<rect x="311.5" y="1.5" width="2" height="27" fill="url(#paint52_linear_941_27279)"/>
<path d="M317.5 3.5H319.5V26.5H317.5V3.5Z" fill="url(#paint53_linear_941_27279)"/>
</g>
<defs>
<linearGradient id="paint0_linear_941_27279" x1="1" y1="0" x2="1" y2="25" gradientUnits="userSpaceOnUse">
<stop stop-color="#14FF00" stop-opacity="0.55"/>
<stop offset="1" stop-color="#00F0FF" stop-opacity="0.62"/>
</linearGradient>
<linearGradient id="paint1_linear_941_27279" x1="1" y1="0" x2="1" y2="19" gradientUnits="userSpaceOnUse">
<stop stop-color="#14FF00" stop-opacity="0.55"/>
<stop offset="1" stop-color="#00F0FF" stop-opacity="0.62"/>
</linearGradient>
<linearGradient id="paint2_linear_941_27279" x1="1" y1="0" x2="1" y2="15" gradientUnits="userSpaceOnUse">
<stop stop-color="#14FF00" stop-opacity="0.55"/>
<stop offset="1" stop-color="#00F0FF" stop-opacity="0.62"/>
</linearGradient>
<linearGradient id="paint3_linear_941_27279" x1="1" y1="0" x2="1" y2="21" gradientUnits="userSpaceOnUse">
<stop stop-color="#14FF00" stop-opacity="0.55"/>
<stop offset="1" stop-color="#00F0FF" stop-opacity="0.62"/>
</linearGradient>
<linearGradient id="paint4_linear_941_27279" x1="1" y1="0" x2="1" y2="15" gradientUnits="userSpaceOnUse">
<stop stop-color="#14FF00" stop-opacity="0.55"/>
<stop offset="1" stop-color="#00F0FF" stop-opacity="0.62"/>
</linearGradient>
<linearGradient id="paint5_linear_941_27279" x1="1" y1="0" x2="1" y2="11" gradientUnits="userSpaceOnUse">
<stop stop-color="#14FF00" stop-opacity="0.55"/>
<stop offset="1" stop-color="#00F0FF" stop-opacity="0.62"/>
</linearGradient>
<linearGradient id="paint6_linear_941_27279" x1="1" y1="0" x2="1" y2="13" gradientUnits="userSpaceOnUse">
<stop stop-color="#14FF00" stop-opacity="0.55"/>
<stop offset="1" stop-color="#00F0FF" stop-opacity="0.62"/>
</linearGradient>
<linearGradient id="paint7_linear_941_27279" x1="1" y1="0" x2="1" y2="9" gradientUnits="userSpaceOnUse">
<stop stop-color="#14FF00" stop-opacity="0.55"/>
<stop offset="1" stop-color="#00F0FF" stop-opacity="0.62"/>
</linearGradient>
<linearGradient id="paint8_linear_941_27279" x1="1" y1="0" x2="1" y2="7" gradientUnits="userSpaceOnUse">
<stop stop-color="#14FF00" stop-opacity="0.55"/>
<stop offset="1" stop-color="#00F0FF" stop-opacity="0.62"/>
</linearGradient>
<linearGradient id="paint9_linear_941_27279" x1="1" y1="0" x2="1" y2="11" gradientUnits="userSpaceOnUse">
<stop stop-color="#14FF00" stop-opacity="0.55"/>
<stop offset="1" stop-color="#00F0FF" stop-opacity="0.62"/>
</linearGradient>
<linearGradient id="paint10_linear_941_27279" x1="1" y1="0" x2="1" y2="23" gradientUnits="userSpaceOnUse">
<stop stop-color="#14FF00" stop-opacity="0.55"/>
<stop offset="1" stop-color="#00F0FF" stop-opacity="0.62"/>
</linearGradient>
<linearGradient id="paint11_linear_941_27279" x1="1" y1="0" x2="1" y2="29" gradientUnits="userSpaceOnUse">
<stop stop-color="#14FF00" stop-opacity="0.55"/>
<stop offset="1" stop-color="#00F0FF" stop-opacity="0.62"/>
</linearGradient>
<linearGradient id="paint12_linear_941_27279" x1="1" y1="0" x2="1" y2="31" gradientUnits="userSpaceOnUse">
<stop stop-color="#14FF00" stop-opacity="0.55"/>
<stop offset="1" stop-color="#00F0FF" stop-opacity="0.62"/>
</linearGradient>
<linearGradient id="paint13_linear_941_27279" x1="1" y1="0" x2="1" y2="25" gradientUnits="userSpaceOnUse">
<stop stop-color="#14FF00" stop-opacity="0.55"/>
<stop offset="1" stop-color="#00F0FF" stop-opacity="0.62"/>
</linearGradient>
<linearGradient id="paint14_linear_941_27279" x1="1" y1="0" x2="1" y2="19" gradientUnits="userSpaceOnUse">
<stop stop-color="#14FF00" stop-opacity="0.55"/>
<stop offset="1" stop-color="#00F0FF" stop-opacity="0.62"/>
</linearGradient>
<linearGradient id="paint15_linear_941_27279" x1="1" y1="0" x2="1" y2="15" gradientUnits="userSpaceOnUse">
<stop stop-color="#14FF00" stop-opacity="0.55"/>
<stop offset="1" stop-color="#00F0FF" stop-opacity="0.62"/>
</linearGradient>
<linearGradient id="paint16_linear_941_27279" x1="1" y1="0" x2="1" y2="21" gradientUnits="userSpaceOnUse">
<stop stop-color="#14FF00" stop-opacity="0.55"/>
<stop offset="1" stop-color="#00F0FF" stop-opacity="0.62"/>
</linearGradient>
<linearGradient id="paint17_linear_941_27279" x1="1" y1="0" x2="1" y2="15" gradientUnits="userSpaceOnUse">
<stop stop-color="#14FF00" stop-opacity="0.55"/>
<stop offset="1" stop-color="#00F0FF" stop-opacity="0.62"/>
</linearGradient>
<linearGradient id="paint18_linear_941_27279" x1="1" y1="0" x2="1" y2="11" gradientUnits="userSpaceOnUse">
<stop stop-color="#14FF00" stop-opacity="0.55"/>
<stop offset="1" stop-color="#00F0FF" stop-opacity="0.62"/>
</linearGradient>
<linearGradient id="paint19_linear_941_27279" x1="1" y1="0" x2="1" y2="9" gradientUnits="userSpaceOnUse">
<stop stop-color="#14FF00" stop-opacity="0.55"/>
<stop offset="1" stop-color="#00F0FF" stop-opacity="0.62"/>
</linearGradient>
<linearGradient id="paint20_linear_941_27279" x1="1" y1="0" x2="1" y2="13" gradientUnits="userSpaceOnUse">
<stop stop-color="#14FF00" stop-opacity="0.55"/>
<stop offset="1" stop-color="#00F0FF" stop-opacity="0.62"/>
</linearGradient>
<linearGradient id="paint21_linear_941_27279" x1="1" y1="0" x2="1" y2="11" gradientUnits="userSpaceOnUse">
<stop stop-color="#14FF00" stop-opacity="0.55"/>
<stop offset="1" stop-color="#00F0FF" stop-opacity="0.62"/>
</linearGradient>
<linearGradient id="paint22_linear_941_27279" x1="0.999999" y1="0" x2="0.999999" y2="15" gradientUnits="userSpaceOnUse">
<stop stop-color="#14FF00" stop-opacity="0.55"/>
<stop offset="1" stop-color="#00F0FF" stop-opacity="0.62"/>
</linearGradient>
<linearGradient id="paint23_linear_941_27279" x1="0.999999" y1="0" x2="0.999999" y2="21" gradientUnits="userSpaceOnUse">
<stop stop-color="#14FF00" stop-opacity="0.55"/>
<stop offset="1" stop-color="#00F0FF" stop-opacity="0.62"/>
</linearGradient>
<linearGradient id="paint24_linear_941_27279" x1="0.999999" y1="0" x2="0.999999" y2="15" gradientUnits="userSpaceOnUse">
<stop stop-color="#14FF00" stop-opacity="0.55"/>
<stop offset="1" stop-color="#00F0FF" stop-opacity="0.62"/>
</linearGradient>
<linearGradient id="paint25_linear_941_27279" x1="1" y1="0" x2="1" y2="9" gradientUnits="userSpaceOnUse">
<stop stop-color="#14FF00" stop-opacity="0.55"/>
<stop offset="1" stop-color="#00F0FF" stop-opacity="0.62"/>
</linearGradient>
<linearGradient id="paint26_linear_941_27279" x1="1" y1="0" x2="1" y2="13" gradientUnits="userSpaceOnUse">
<stop stop-color="#14FF00" stop-opacity="0.55"/>
<stop offset="1" stop-color="#00F0FF" stop-opacity="0.62"/>
</linearGradient>
<linearGradient id="paint27_linear_941_27279" x1="164.5" y1="28.5" x2="164.5" y2="55.5" gradientUnits="userSpaceOnUse">
<stop stop-color="#14FF00" stop-opacity="0.55"/>
<stop offset="1" stop-color="#00F0FF" stop-opacity="0.62"/>
</linearGradient>
<linearGradient id="paint28_linear_941_27279" x1="168.5" y1="26.5" x2="168.5" y2="3.5" gradientUnits="userSpaceOnUse">
<stop stop-color="#14FF00" stop-opacity="0.55"/>
<stop offset="1" stop-color="#00F0FF" stop-opacity="0.62"/>
</linearGradient>
<linearGradient id="paint29_linear_941_27279" x1="176.5" y1="23.5" x2="176.5" y2="40.5" gradientUnits="userSpaceOnUse">
<stop stop-color="#14FF00" stop-opacity="0.55"/>
<stop offset="1" stop-color="#00F0FF" stop-opacity="0.62"/>
</linearGradient>
<linearGradient id="paint30_linear_941_27279" x1="182.5" y1="21.5" x2="182.5" y2="34.5" gradientUnits="userSpaceOnUse">
<stop stop-color="#14FF00" stop-opacity="0.55"/>
<stop offset="1" stop-color="#00F0FF" stop-opacity="0.62"/>
</linearGradient>
<linearGradient id="paint31_linear_941_27279" x1="188.5" y1="24.5" x2="188.5" y2="43.5" gradientUnits="userSpaceOnUse">
<stop stop-color="#14FF00" stop-opacity="0.55"/>
<stop offset="1" stop-color="#00F0FF" stop-opacity="0.62"/>
</linearGradient>
<linearGradient id="paint32_linear_941_27279" x1="194.5" y1="21.5" x2="194.5" y2="34.5" gradientUnits="userSpaceOnUse">
<stop stop-color="#14FF00" stop-opacity="0.55"/>
<stop offset="1" stop-color="#00F0FF" stop-opacity="0.62"/>
</linearGradient>
<linearGradient id="paint33_linear_941_27279" x1="200.5" y1="19.5" x2="200.5" y2="28.5" gradientUnits="userSpaceOnUse">
<stop stop-color="#14FF00" stop-opacity="0.55"/>
<stop offset="1" stop-color="#00F0FF" stop-opacity="0.62"/>
</linearGradient>
<linearGradient id="paint34_linear_941_27279" x1="206.5" y1="20.5" x2="206.5" y2="31.5" gradientUnits="userSpaceOnUse">
<stop stop-color="#14FF00" stop-opacity="0.55"/>
<stop offset="1" stop-color="#00F0FF" stop-opacity="0.62"/>
</linearGradient>
<linearGradient id="paint35_linear_941_27279" x1="212.5" y1="18.5" x2="212.5" y2="25.5" gradientUnits="userSpaceOnUse">
<stop stop-color="#14FF00" stop-opacity="0.55"/>
<stop offset="1" stop-color="#00F0FF" stop-opacity="0.62"/>
</linearGradient>
<linearGradient id="paint36_linear_941_27279" x1="218.5" y1="17.5" x2="218.5" y2="22.5" gradientUnits="userSpaceOnUse">
<stop stop-color="#14FF00" stop-opacity="0.55"/>
<stop offset="1" stop-color="#00F0FF" stop-opacity="0.62"/>
</linearGradient>
<linearGradient id="paint37_linear_941_27279" x1="224.5" y1="19.5" x2="224.5" y2="28.5" gradientUnits="userSpaceOnUse">
<stop stop-color="#14FF00" stop-opacity="0.55"/>
<stop offset="1" stop-color="#00F0FF" stop-opacity="0.62"/>
</linearGradient>
<linearGradient id="paint38_linear_941_27279" x1="230.5" y1="25.5" x2="230.5" y2="46.5" gradientUnits="userSpaceOnUse">
<stop stop-color="#14FF00" stop-opacity="0.55"/>
<stop offset="1" stop-color="#00F0FF" stop-opacity="0.62"/>
</linearGradient>
<linearGradient id="paint39_linear_941_27279" x1="236.5" y1="28.5" x2="236.5" y2="55.5" gradientUnits="userSpaceOnUse">
<stop stop-color="#14FF00" stop-opacity="0.55"/>
<stop offset="1" stop-color="#00F0FF" stop-opacity="0.62"/>
</linearGradient>
<linearGradient id="paint40_linear_941_27279" x1="242.5" y1="28.5" x2="242.5" y2="55.5" gradientUnits="userSpaceOnUse">
<stop stop-color="#14FF00" stop-opacity="0.55"/>
<stop offset="1" stop-color="#00F0FF" stop-opacity="0.62"/>
</linearGradient>
<linearGradient id="paint41_linear_941_27279" x1="248.5" y1="26.5" x2="248.5" y2="49.5" gradientUnits="userSpaceOnUse">
<stop stop-color="#14FF00" stop-opacity="0.55"/>
<stop offset="1" stop-color="#00F0FF" stop-opacity="0.62"/>
</linearGradient>
<linearGradient id="paint42_linear_941_27279" x1="254.5" y1="23.5" x2="254.5" y2="40.5" gradientUnits="userSpaceOnUse">
<stop stop-color="#14FF00" stop-opacity="0.55"/>
<stop offset="1" stop-color="#00F0FF" stop-opacity="0.62"/>
</linearGradient>
<linearGradient id="paint43_linear_941_27279" x1="260.5" y1="21.5" x2="260.5" y2="34.5" gradientUnits="userSpaceOnUse">
<stop stop-color="#14FF00" stop-opacity="0.55"/>
<stop offset="1" stop-color="#00F0FF" stop-opacity="0.62"/>
</linearGradient>
<linearGradient id="paint44_linear_941_27279" x1="266.5" y1="24.5" x2="266.5" y2="43.5" gradientUnits="userSpaceOnUse">
<stop stop-color="#14FF00" stop-opacity="0.55"/>
<stop offset="1" stop-color="#00F0FF" stop-opacity="0.62"/>
</linearGradient>
<linearGradient id="paint45_linear_941_27279" x1="272.5" y1="21.5" x2="272.5" y2="34.5" gradientUnits="userSpaceOnUse">
<stop stop-color="#14FF00" stop-opacity="0.55"/>
<stop offset="1" stop-color="#00F0FF" stop-opacity="0.62"/>
</linearGradient>
<linearGradient id="paint46_linear_941_27279" x1="278.5" y1="19.5" x2="278.5" y2="28.5" gradientUnits="userSpaceOnUse">
<stop stop-color="#14FF00" stop-opacity="0.55"/>
<stop offset="1" stop-color="#00F0FF" stop-opacity="0.62"/>
</linearGradient>
<linearGradient id="paint47_linear_941_27279" x1="284.5" y1="20.5" x2="284.5" y2="31.5" gradientUnits="userSpaceOnUse">
<stop stop-color="#14FF00" stop-opacity="0.55"/>
<stop offset="1" stop-color="#00F0FF" stop-opacity="0.62"/>
</linearGradient>
<linearGradient id="paint48_linear_941_27279" x1="290.5" y1="18.5" x2="290.5" y2="25.5" gradientUnits="userSpaceOnUse">
<stop stop-color="#14FF00" stop-opacity="0.55"/>
<stop offset="1" stop-color="#00F0FF" stop-opacity="0.62"/>
</linearGradient>
<linearGradient id="paint49_linear_941_27279" x1="296.5" y1="21.5" x2="296.5" y2="34.5" gradientUnits="userSpaceOnUse">
<stop stop-color="#14FF00" stop-opacity="0.55"/>
<stop offset="1" stop-color="#00F0FF" stop-opacity="0.62"/>
</linearGradient>
<linearGradient id="paint50_linear_941_27279" x1="302.5" y1="24.5" x2="302.5" y2="43.5" gradientUnits="userSpaceOnUse">
<stop stop-color="#14FF00" stop-opacity="0.55"/>
<stop offset="1" stop-color="#00F0FF" stop-opacity="0.62"/>
</linearGradient>
<linearGradient id="paint51_linear_941_27279" x1="308.5" y1="21.5" x2="308.5" y2="34.5" gradientUnits="userSpaceOnUse">
<stop stop-color="#14FF00" stop-opacity="0.55"/>
<stop offset="1" stop-color="#00F0FF" stop-opacity="0.62"/>
</linearGradient>
<linearGradient id="paint52_linear_941_27279" x1="312.5" y1="1.5" x2="312.5" y2="28.5" gradientUnits="userSpaceOnUse">
<stop stop-color="#14FF00" stop-opacity="0.55"/>
<stop offset="1" stop-color="#00F0FF" stop-opacity="0.62"/>
</linearGradient>
<linearGradient id="paint53_linear_941_27279" x1="318.5" y1="3.5" x2="318.5" y2="26.5" gradientUnits="userSpaceOnUse">
<stop stop-color="#14FF00" stop-opacity="0.55"/>
<stop offset="1" stop-color="#00F0FF" stop-opacity="0.62"/>
</linearGradient>
<clipPath id="clip0_941_27279">
<rect width="319" height="30" fill="white"/>
</clipPath>
</defs>
</svg>
