<svg width="504" height="30" viewBox="0 0 504 30" fill="none" xmlns="http://www.w3.org/2000/svg">
<g clip-path="url(#clip0_1116_3002)">
<rect x="2" y="11.5" width="2" height="7" fill="url(#paint0_linear_1116_3002)"/>
<rect x="8" y="8.5" width="2" height="13" fill="url(#paint1_linear_1116_3002)"/>
<rect x="14" y="5.5" width="2" height="19" fill="url(#paint2_linear_1116_3002)"/>
<rect x="20" y="8.5" width="2" height="13" fill="url(#paint3_linear_1116_3002)"/>
<rect x="26" y="10.5" width="2" height="9" fill="url(#paint4_linear_1116_3002)"/>
<rect x="32" y="9.5" width="2" height="11" fill="url(#paint5_linear_1116_3002)"/>
<rect x="38" y="11.5" width="2" height="7" fill="url(#paint6_linear_1116_3002)"/>
<rect width="2" height="11" transform="matrix(1 0 0 -1 44 20.5)" fill="url(#paint7_linear_1116_3002)"/>
<rect width="2" height="13" transform="matrix(1 0 0 -1 50 21.5)" fill="url(#paint8_linear_1116_3002)"/>
<rect width="2" height="9" transform="matrix(1 0 0 -1 56 19.5)" fill="url(#paint9_linear_1116_3002)"/>
<rect width="2" height="7" transform="matrix(1 0 0 -1 62 18.5)" fill="url(#paint10_linear_1116_3002)"/>
<rect width="2" height="11" transform="matrix(1 0 0 -1 68 20.5)" fill="url(#paint11_linear_1116_3002)"/>
<rect width="2" height="41" transform="matrix(1 0 0 -1 74 35.5)" fill="url(#paint12_linear_1116_3002)"/>
<rect width="2" height="41" transform="matrix(1 0 0 -1 80 35.5)" fill="url(#paint13_linear_1116_3002)"/>
<rect width="2" height="31" transform="matrix(1 0 0 -1 86 30.5)" fill="url(#paint14_linear_1116_3002)"/>
<rect width="2" height="25" transform="matrix(1 0 0 -1 92 27.5)" fill="url(#paint15_linear_1116_3002)"/>
<rect width="2" height="19" transform="matrix(1 0 0 -1 98 24.5)" fill="url(#paint16_linear_1116_3002)"/>
<rect width="2" height="15" transform="matrix(1 0 0 -1 104 22.5)" fill="url(#paint17_linear_1116_3002)"/>
<rect width="2" height="21" transform="matrix(1 0 0 -1 110 25.5)" fill="url(#paint18_linear_1116_3002)"/>
<rect width="2" height="15" transform="matrix(1 0 0 -1 116 22.5)" fill="url(#paint19_linear_1116_3002)"/>
<rect width="2" height="11" transform="matrix(1 0 0 -1 122 20.5)" fill="url(#paint20_linear_1116_3002)"/>
<rect width="2" height="13" transform="matrix(1 0 0 -1 128 21.5)" fill="url(#paint21_linear_1116_3002)"/>
<rect width="2" height="9" transform="matrix(1 0 0 -1 134 19.5)" fill="url(#paint22_linear_1116_3002)"/>
<rect width="2" height="7" transform="matrix(1 0 0 -1 140 18.5)" fill="url(#paint23_linear_1116_3002)"/>
<rect width="2" height="11" transform="matrix(1 0 0 -1 146 20.5)" fill="url(#paint24_linear_1116_3002)"/>
<rect width="2" height="23" transform="matrix(1 0 0 -1 152 26.5)" fill="url(#paint25_linear_1116_3002)"/>
<rect width="2" height="29" transform="matrix(1 0 0 -1 158 29.5)" fill="url(#paint26_linear_1116_3002)"/>
<rect width="2" height="31" transform="matrix(1 0 0 -1 164 30.5)" fill="url(#paint27_linear_1116_3002)"/>
<rect width="2" height="25" transform="matrix(1 0 0 -1 170 27.5)" fill="url(#paint28_linear_1116_3002)"/>
<rect width="2" height="19" transform="matrix(1 0 0 -1 176 24.5)" fill="url(#paint29_linear_1116_3002)"/>
<rect width="2" height="15" transform="matrix(1 0 0 -1 182 22.5)" fill="url(#paint30_linear_1116_3002)"/>
<rect width="2" height="21" transform="matrix(1 0 0 -1 188 25.5)" fill="url(#paint31_linear_1116_3002)"/>
<rect width="2" height="15" transform="matrix(1 0 0 -1 194 22.5)" fill="url(#paint32_linear_1116_3002)"/>
<rect width="2" height="11" transform="matrix(1 0 0 -1 200 20.5)" fill="url(#paint33_linear_1116_3002)"/>
<rect width="2" height="9" transform="matrix(-1 -1.00131e-07 -7.63273e-08 1 208 10.5)" fill="url(#paint34_linear_1116_3002)"/>
<rect width="2" height="13" transform="matrix(-1 -1.00131e-07 -7.63273e-08 1 214 8.5)" fill="url(#paint35_linear_1116_3002)"/>
<rect width="2" height="11" transform="matrix(-1 -1.00131e-07 -7.63273e-08 1 220 9.5)" fill="url(#paint36_linear_1116_3002)"/>
<rect width="2" height="15" transform="matrix(-1 -1.00131e-07 -7.63273e-08 1 226 7.5)" fill="url(#paint37_linear_1116_3002)"/>
<rect width="2" height="21" transform="matrix(-1 -1.00131e-07 -7.63273e-08 1 232 4.5)" fill="url(#paint38_linear_1116_3002)"/>
<rect width="2" height="15" transform="matrix(-1 -1.00131e-07 -7.63273e-08 1 238 7.5)" fill="url(#paint39_linear_1116_3002)"/>
<rect width="2" height="9" transform="matrix(-1 -1.00131e-07 -7.63273e-08 1 244 10.5)" fill="url(#paint40_linear_1116_3002)"/>
<rect width="2" height="13" transform="matrix(-1 -1.00131e-07 -7.63273e-08 1 250 8.5)" fill="url(#paint41_linear_1116_3002)"/>
<rect x="256" y="28.5" width="2" height="27" transform="rotate(-180 256 28.5)" fill="url(#paint42_linear_1116_3002)"/>
<path d="M262 26.5L260 26.5L260 3.5L262 3.5L262 26.5Z" fill="url(#paint43_linear_1116_3002)"/>
<rect x="268" y="23.5" width="2" height="17" transform="rotate(-180 268 23.5)" fill="url(#paint44_linear_1116_3002)"/>
<rect x="274" y="21.5" width="2" height="13" transform="rotate(-180 274 21.5)" fill="url(#paint45_linear_1116_3002)"/>
<rect x="280" y="24.5" width="2" height="19" transform="rotate(-180 280 24.5)" fill="url(#paint46_linear_1116_3002)"/>
<rect x="286" y="21.5" width="2" height="13" transform="rotate(-180 286 21.5)" fill="url(#paint47_linear_1116_3002)"/>
<rect x="292" y="19.5" width="2" height="9" transform="rotate(-180 292 19.5)" fill="url(#paint48_linear_1116_3002)"/>
<rect x="298" y="20.5" width="2" height="11" transform="rotate(-180 298 20.5)" fill="url(#paint49_linear_1116_3002)"/>
<rect x="304" y="18.5" width="2" height="7" transform="rotate(-180 304 18.5)" fill="url(#paint50_linear_1116_3002)"/>
<rect x="310" y="17.5" width="2" height="5" transform="rotate(-180 310 17.5)" fill="url(#paint51_linear_1116_3002)"/>
<rect x="316" y="19.5" width="2" height="9" transform="rotate(-180 316 19.5)" fill="url(#paint52_linear_1116_3002)"/>
<rect x="322" y="25.5" width="2" height="21" transform="rotate(-180 322 25.5)" fill="url(#paint53_linear_1116_3002)"/>
<rect x="328" y="28.5" width="2" height="27" transform="rotate(-180 328 28.5)" fill="url(#paint54_linear_1116_3002)"/>
<rect x="334" y="28.5" width="2" height="27" transform="rotate(-180 334 28.5)" fill="url(#paint55_linear_1116_3002)"/>
<rect x="340" y="26.5" width="2" height="23" transform="rotate(-180 340 26.5)" fill="url(#paint56_linear_1116_3002)"/>
<rect x="346" y="23.5" width="2" height="17" transform="rotate(-180 346 23.5)" fill="url(#paint57_linear_1116_3002)"/>
<rect x="352" y="21.5" width="2" height="13" transform="rotate(-180 352 21.5)" fill="url(#paint58_linear_1116_3002)"/>
<rect x="358" y="24.5" width="2" height="19" transform="rotate(-180 358 24.5)" fill="url(#paint59_linear_1116_3002)"/>
<rect x="364" y="21.5" width="2" height="13" transform="rotate(-180 364 21.5)" fill="url(#paint60_linear_1116_3002)"/>
<rect x="370" y="19.5" width="2" height="9" transform="rotate(-180 370 19.5)" fill="url(#paint61_linear_1116_3002)"/>
<rect x="376" y="20.5" width="2" height="11" transform="rotate(-180 376 20.5)" fill="url(#paint62_linear_1116_3002)"/>
<rect x="382" y="18.5" width="2" height="7" transform="rotate(-180 382 18.5)" fill="url(#paint63_linear_1116_3002)"/>
<rect x="388" y="21.5" width="2" height="13" transform="rotate(-180 388 21.5)" fill="url(#paint64_linear_1116_3002)"/>
<rect x="394" y="24.5" width="2" height="19" transform="rotate(-180 394 24.5)" fill="url(#paint65_linear_1116_3002)"/>
<rect x="400" y="21.5" width="2" height="13" transform="rotate(-180 400 21.5)" fill="url(#paint66_linear_1116_3002)"/>
<rect x="404" y="1.5" width="2" height="27" fill="url(#paint67_linear_1116_3002)"/>
<path d="M410 3.5H412V26.5H410V3.5Z" fill="url(#paint68_linear_1116_3002)"/>
<rect x="416" y="6.5" width="2" height="17" fill="url(#paint69_linear_1116_3002)"/>
<rect x="422" y="8.5" width="2" height="13" fill="url(#paint70_linear_1116_3002)"/>
<rect x="428" y="5.5" width="2" height="19" fill="url(#paint71_linear_1116_3002)"/>
<rect x="434" y="8.5" width="2" height="13" fill="url(#paint72_linear_1116_3002)"/>
<rect x="440" y="10.5" width="2" height="9" fill="url(#paint73_linear_1116_3002)"/>
<rect x="446" y="9.5" width="2" height="11" fill="url(#paint74_linear_1116_3002)"/>
<rect x="452" y="11.5" width="2" height="7" fill="url(#paint75_linear_1116_3002)"/>
<rect x="458" y="12.5" width="2" height="5" fill="url(#paint76_linear_1116_3002)"/>
<rect x="464" y="10.5" width="2" height="9" fill="url(#paint77_linear_1116_3002)"/>
<rect x="470" y="4.5" width="2" height="21" fill="url(#paint78_linear_1116_3002)"/>
<rect x="476" y="1.5" width="2" height="27" fill="url(#paint79_linear_1116_3002)"/>
<rect x="482" y="1.5" width="2" height="27" fill="url(#paint80_linear_1116_3002)"/>
<rect x="488" y="3.5" width="2" height="23" fill="url(#paint81_linear_1116_3002)"/>
<rect x="494" y="6.5" width="2" height="17" fill="url(#paint82_linear_1116_3002)"/>
<rect x="500" y="8.5" width="2" height="13" fill="url(#paint83_linear_1116_3002)"/>
</g>
<defs>
<linearGradient id="paint0_linear_1116_3002" x1="3" y1="11.5" x2="3" y2="18.5" gradientUnits="userSpaceOnUse">
<stop stop-color="#14FF00" stop-opacity="0.55"/>
<stop offset="1" stop-color="#00F0FF" stop-opacity="0.62"/>
</linearGradient>
<linearGradient id="paint1_linear_1116_3002" x1="9" y1="8.5" x2="9" y2="21.5" gradientUnits="userSpaceOnUse">
<stop stop-color="#14FF00" stop-opacity="0.55"/>
<stop offset="1" stop-color="#00F0FF" stop-opacity="0.62"/>
</linearGradient>
<linearGradient id="paint2_linear_1116_3002" x1="15" y1="5.5" x2="15" y2="24.5" gradientUnits="userSpaceOnUse">
<stop stop-color="#14FF00" stop-opacity="0.55"/>
<stop offset="1" stop-color="#00F0FF" stop-opacity="0.62"/>
</linearGradient>
<linearGradient id="paint3_linear_1116_3002" x1="21" y1="8.5" x2="21" y2="21.5" gradientUnits="userSpaceOnUse">
<stop stop-color="#14FF00" stop-opacity="0.55"/>
<stop offset="1" stop-color="#00F0FF" stop-opacity="0.62"/>
</linearGradient>
<linearGradient id="paint4_linear_1116_3002" x1="27" y1="10.5" x2="27" y2="19.5" gradientUnits="userSpaceOnUse">
<stop stop-color="#14FF00" stop-opacity="0.55"/>
<stop offset="1" stop-color="#00F0FF" stop-opacity="0.62"/>
</linearGradient>
<linearGradient id="paint5_linear_1116_3002" x1="33" y1="9.5" x2="33" y2="20.5" gradientUnits="userSpaceOnUse">
<stop stop-color="#14FF00" stop-opacity="0.55"/>
<stop offset="1" stop-color="#00F0FF" stop-opacity="0.62"/>
</linearGradient>
<linearGradient id="paint6_linear_1116_3002" x1="39" y1="11.5" x2="39" y2="18.5" gradientUnits="userSpaceOnUse">
<stop stop-color="#14FF00" stop-opacity="0.55"/>
<stop offset="1" stop-color="#00F0FF" stop-opacity="0.62"/>
</linearGradient>
<linearGradient id="paint7_linear_1116_3002" x1="1" y1="0" x2="1" y2="11" gradientUnits="userSpaceOnUse">
<stop stop-color="#14FF00" stop-opacity="0.55"/>
<stop offset="1" stop-color="#00F0FF" stop-opacity="0.62"/>
</linearGradient>
<linearGradient id="paint8_linear_1116_3002" x1="1" y1="0" x2="1" y2="13" gradientUnits="userSpaceOnUse">
<stop stop-color="#14FF00" stop-opacity="0.55"/>
<stop offset="1" stop-color="#00F0FF" stop-opacity="0.62"/>
</linearGradient>
<linearGradient id="paint9_linear_1116_3002" x1="1" y1="0" x2="1" y2="9" gradientUnits="userSpaceOnUse">
<stop stop-color="#14FF00" stop-opacity="0.55"/>
<stop offset="1" stop-color="#00F0FF" stop-opacity="0.62"/>
</linearGradient>
<linearGradient id="paint10_linear_1116_3002" x1="1" y1="0" x2="1" y2="7" gradientUnits="userSpaceOnUse">
<stop stop-color="#14FF00" stop-opacity="0.55"/>
<stop offset="1" stop-color="#00F0FF" stop-opacity="0.62"/>
</linearGradient>
<linearGradient id="paint11_linear_1116_3002" x1="1" y1="0" x2="1" y2="11" gradientUnits="userSpaceOnUse">
<stop stop-color="#14FF00" stop-opacity="0.55"/>
<stop offset="1" stop-color="#00F0FF" stop-opacity="0.62"/>
</linearGradient>
<linearGradient id="paint12_linear_1116_3002" x1="1" y1="0" x2="1" y2="41" gradientUnits="userSpaceOnUse">
<stop stop-color="#14FF00" stop-opacity="0.55"/>
<stop offset="1" stop-color="#00F0FF" stop-opacity="0.62"/>
</linearGradient>
<linearGradient id="paint13_linear_1116_3002" x1="1" y1="0" x2="1" y2="41" gradientUnits="userSpaceOnUse">
<stop stop-color="#14FF00" stop-opacity="0.55"/>
<stop offset="1" stop-color="#00F0FF" stop-opacity="0.62"/>
</linearGradient>
<linearGradient id="paint14_linear_1116_3002" x1="1" y1="0" x2="1" y2="31" gradientUnits="userSpaceOnUse">
<stop stop-color="#14FF00" stop-opacity="0.55"/>
<stop offset="1" stop-color="#00F0FF" stop-opacity="0.62"/>
</linearGradient>
<linearGradient id="paint15_linear_1116_3002" x1="1" y1="0" x2="1" y2="25" gradientUnits="userSpaceOnUse">
<stop stop-color="#14FF00" stop-opacity="0.55"/>
<stop offset="1" stop-color="#00F0FF" stop-opacity="0.62"/>
</linearGradient>
<linearGradient id="paint16_linear_1116_3002" x1="1" y1="0" x2="1" y2="19" gradientUnits="userSpaceOnUse">
<stop stop-color="#14FF00" stop-opacity="0.55"/>
<stop offset="1" stop-color="#00F0FF" stop-opacity="0.62"/>
</linearGradient>
<linearGradient id="paint17_linear_1116_3002" x1="1" y1="0" x2="1" y2="15" gradientUnits="userSpaceOnUse">
<stop stop-color="#14FF00" stop-opacity="0.55"/>
<stop offset="1" stop-color="#00F0FF" stop-opacity="0.62"/>
</linearGradient>
<linearGradient id="paint18_linear_1116_3002" x1="1" y1="0" x2="1" y2="21" gradientUnits="userSpaceOnUse">
<stop stop-color="#14FF00" stop-opacity="0.55"/>
<stop offset="1" stop-color="#00F0FF" stop-opacity="0.62"/>
</linearGradient>
<linearGradient id="paint19_linear_1116_3002" x1="1" y1="0" x2="1" y2="15" gradientUnits="userSpaceOnUse">
<stop stop-color="#14FF00" stop-opacity="0.55"/>
<stop offset="1" stop-color="#00F0FF" stop-opacity="0.62"/>
</linearGradient>
<linearGradient id="paint20_linear_1116_3002" x1="1" y1="0" x2="1" y2="11" gradientUnits="userSpaceOnUse">
<stop stop-color="#14FF00" stop-opacity="0.55"/>
<stop offset="1" stop-color="#00F0FF" stop-opacity="0.62"/>
</linearGradient>
<linearGradient id="paint21_linear_1116_3002" x1="1" y1="0" x2="1" y2="13" gradientUnits="userSpaceOnUse">
<stop stop-color="#14FF00" stop-opacity="0.55"/>
<stop offset="1" stop-color="#00F0FF" stop-opacity="0.62"/>
</linearGradient>
<linearGradient id="paint22_linear_1116_3002" x1="1" y1="0" x2="1" y2="9" gradientUnits="userSpaceOnUse">
<stop stop-color="#14FF00" stop-opacity="0.55"/>
<stop offset="1" stop-color="#00F0FF" stop-opacity="0.62"/>
</linearGradient>
<linearGradient id="paint23_linear_1116_3002" x1="1" y1="0" x2="1" y2="7" gradientUnits="userSpaceOnUse">
<stop stop-color="#14FF00" stop-opacity="0.55"/>
<stop offset="1" stop-color="#00F0FF" stop-opacity="0.62"/>
</linearGradient>
<linearGradient id="paint24_linear_1116_3002" x1="1" y1="0" x2="1" y2="11" gradientUnits="userSpaceOnUse">
<stop stop-color="#14FF00" stop-opacity="0.55"/>
<stop offset="1" stop-color="#00F0FF" stop-opacity="0.62"/>
</linearGradient>
<linearGradient id="paint25_linear_1116_3002" x1="1" y1="0" x2="1" y2="23" gradientUnits="userSpaceOnUse">
<stop stop-color="#14FF00" stop-opacity="0.55"/>
<stop offset="1" stop-color="#00F0FF" stop-opacity="0.62"/>
</linearGradient>
<linearGradient id="paint26_linear_1116_3002" x1="1" y1="0" x2="1" y2="29" gradientUnits="userSpaceOnUse">
<stop stop-color="#14FF00" stop-opacity="0.55"/>
<stop offset="1" stop-color="#00F0FF" stop-opacity="0.62"/>
</linearGradient>
<linearGradient id="paint27_linear_1116_3002" x1="1" y1="0" x2="1" y2="31" gradientUnits="userSpaceOnUse">
<stop stop-color="#14FF00" stop-opacity="0.55"/>
<stop offset="1" stop-color="#00F0FF" stop-opacity="0.62"/>
</linearGradient>
<linearGradient id="paint28_linear_1116_3002" x1="1" y1="0" x2="1" y2="25" gradientUnits="userSpaceOnUse">
<stop stop-color="#14FF00" stop-opacity="0.55"/>
<stop offset="1" stop-color="#00F0FF" stop-opacity="0.62"/>
</linearGradient>
<linearGradient id="paint29_linear_1116_3002" x1="1" y1="0" x2="1" y2="19" gradientUnits="userSpaceOnUse">
<stop stop-color="#14FF00" stop-opacity="0.55"/>
<stop offset="1" stop-color="#00F0FF" stop-opacity="0.62"/>
</linearGradient>
<linearGradient id="paint30_linear_1116_3002" x1="1" y1="0" x2="1" y2="15" gradientUnits="userSpaceOnUse">
<stop stop-color="#14FF00" stop-opacity="0.55"/>
<stop offset="1" stop-color="#00F0FF" stop-opacity="0.62"/>
</linearGradient>
<linearGradient id="paint31_linear_1116_3002" x1="1" y1="0" x2="1" y2="21" gradientUnits="userSpaceOnUse">
<stop stop-color="#14FF00" stop-opacity="0.55"/>
<stop offset="1" stop-color="#00F0FF" stop-opacity="0.62"/>
</linearGradient>
<linearGradient id="paint32_linear_1116_3002" x1="1" y1="0" x2="1" y2="15" gradientUnits="userSpaceOnUse">
<stop stop-color="#14FF00" stop-opacity="0.55"/>
<stop offset="1" stop-color="#00F0FF" stop-opacity="0.62"/>
</linearGradient>
<linearGradient id="paint33_linear_1116_3002" x1="1" y1="0" x2="1" y2="11" gradientUnits="userSpaceOnUse">
<stop stop-color="#14FF00" stop-opacity="0.55"/>
<stop offset="1" stop-color="#00F0FF" stop-opacity="0.62"/>
</linearGradient>
<linearGradient id="paint34_linear_1116_3002" x1="1" y1="0" x2="1" y2="9" gradientUnits="userSpaceOnUse">
<stop stop-color="#14FF00" stop-opacity="0.55"/>
<stop offset="1" stop-color="#00F0FF" stop-opacity="0.62"/>
</linearGradient>
<linearGradient id="paint35_linear_1116_3002" x1="1" y1="0" x2="1" y2="13" gradientUnits="userSpaceOnUse">
<stop stop-color="#14FF00" stop-opacity="0.55"/>
<stop offset="1" stop-color="#00F0FF" stop-opacity="0.62"/>
</linearGradient>
<linearGradient id="paint36_linear_1116_3002" x1="1" y1="0" x2="1" y2="11" gradientUnits="userSpaceOnUse">
<stop stop-color="#14FF00" stop-opacity="0.55"/>
<stop offset="1" stop-color="#00F0FF" stop-opacity="0.62"/>
</linearGradient>
<linearGradient id="paint37_linear_1116_3002" x1="0.999999" y1="0" x2="0.999999" y2="15" gradientUnits="userSpaceOnUse">
<stop stop-color="#14FF00" stop-opacity="0.55"/>
<stop offset="1" stop-color="#00F0FF" stop-opacity="0.62"/>
</linearGradient>
<linearGradient id="paint38_linear_1116_3002" x1="0.999999" y1="0" x2="0.999999" y2="21" gradientUnits="userSpaceOnUse">
<stop stop-color="#14FF00" stop-opacity="0.55"/>
<stop offset="1" stop-color="#00F0FF" stop-opacity="0.62"/>
</linearGradient>
<linearGradient id="paint39_linear_1116_3002" x1="0.999999" y1="0" x2="0.999999" y2="15" gradientUnits="userSpaceOnUse">
<stop stop-color="#14FF00" stop-opacity="0.55"/>
<stop offset="1" stop-color="#00F0FF" stop-opacity="0.62"/>
</linearGradient>
<linearGradient id="paint40_linear_1116_3002" x1="1" y1="0" x2="1" y2="9" gradientUnits="userSpaceOnUse">
<stop stop-color="#14FF00" stop-opacity="0.55"/>
<stop offset="1" stop-color="#00F0FF" stop-opacity="0.62"/>
</linearGradient>
<linearGradient id="paint41_linear_1116_3002" x1="1" y1="0" x2="1" y2="13" gradientUnits="userSpaceOnUse">
<stop stop-color="#14FF00" stop-opacity="0.55"/>
<stop offset="1" stop-color="#00F0FF" stop-opacity="0.62"/>
</linearGradient>
<linearGradient id="paint42_linear_1116_3002" x1="257" y1="28.5" x2="257" y2="55.5" gradientUnits="userSpaceOnUse">
<stop stop-color="#14FF00" stop-opacity="0.55"/>
<stop offset="1" stop-color="#00F0FF" stop-opacity="0.62"/>
</linearGradient>
<linearGradient id="paint43_linear_1116_3002" x1="261" y1="26.5" x2="261" y2="3.5" gradientUnits="userSpaceOnUse">
<stop stop-color="#14FF00" stop-opacity="0.55"/>
<stop offset="1" stop-color="#00F0FF" stop-opacity="0.62"/>
</linearGradient>
<linearGradient id="paint44_linear_1116_3002" x1="269" y1="23.5" x2="269" y2="40.5" gradientUnits="userSpaceOnUse">
<stop stop-color="#14FF00" stop-opacity="0.55"/>
<stop offset="1" stop-color="#00F0FF" stop-opacity="0.62"/>
</linearGradient>
<linearGradient id="paint45_linear_1116_3002" x1="275" y1="21.5" x2="275" y2="34.5" gradientUnits="userSpaceOnUse">
<stop stop-color="#14FF00" stop-opacity="0.55"/>
<stop offset="1" stop-color="#00F0FF" stop-opacity="0.62"/>
</linearGradient>
<linearGradient id="paint46_linear_1116_3002" x1="281" y1="24.5" x2="281" y2="43.5" gradientUnits="userSpaceOnUse">
<stop stop-color="#14FF00" stop-opacity="0.55"/>
<stop offset="1" stop-color="#00F0FF" stop-opacity="0.62"/>
</linearGradient>
<linearGradient id="paint47_linear_1116_3002" x1="287" y1="21.5" x2="287" y2="34.5" gradientUnits="userSpaceOnUse">
<stop stop-color="#14FF00" stop-opacity="0.55"/>
<stop offset="1" stop-color="#00F0FF" stop-opacity="0.62"/>
</linearGradient>
<linearGradient id="paint48_linear_1116_3002" x1="293" y1="19.5" x2="293" y2="28.5" gradientUnits="userSpaceOnUse">
<stop stop-color="#14FF00" stop-opacity="0.55"/>
<stop offset="1" stop-color="#00F0FF" stop-opacity="0.62"/>
</linearGradient>
<linearGradient id="paint49_linear_1116_3002" x1="299" y1="20.5" x2="299" y2="31.5" gradientUnits="userSpaceOnUse">
<stop stop-color="#14FF00" stop-opacity="0.55"/>
<stop offset="1" stop-color="#00F0FF" stop-opacity="0.62"/>
</linearGradient>
<linearGradient id="paint50_linear_1116_3002" x1="305" y1="18.5" x2="305" y2="25.5" gradientUnits="userSpaceOnUse">
<stop stop-color="#14FF00" stop-opacity="0.55"/>
<stop offset="1" stop-color="#00F0FF" stop-opacity="0.62"/>
</linearGradient>
<linearGradient id="paint51_linear_1116_3002" x1="311" y1="17.5" x2="311" y2="22.5" gradientUnits="userSpaceOnUse">
<stop stop-color="#14FF00" stop-opacity="0.55"/>
<stop offset="1" stop-color="#00F0FF" stop-opacity="0.62"/>
</linearGradient>
<linearGradient id="paint52_linear_1116_3002" x1="317" y1="19.5" x2="317" y2="28.5" gradientUnits="userSpaceOnUse">
<stop stop-color="#14FF00" stop-opacity="0.55"/>
<stop offset="1" stop-color="#00F0FF" stop-opacity="0.62"/>
</linearGradient>
<linearGradient id="paint53_linear_1116_3002" x1="323" y1="25.5" x2="323" y2="46.5" gradientUnits="userSpaceOnUse">
<stop stop-color="#14FF00" stop-opacity="0.55"/>
<stop offset="1" stop-color="#00F0FF" stop-opacity="0.62"/>
</linearGradient>
<linearGradient id="paint54_linear_1116_3002" x1="329" y1="28.5" x2="329" y2="55.5" gradientUnits="userSpaceOnUse">
<stop stop-color="#14FF00" stop-opacity="0.55"/>
<stop offset="1" stop-color="#00F0FF" stop-opacity="0.62"/>
</linearGradient>
<linearGradient id="paint55_linear_1116_3002" x1="335" y1="28.5" x2="335" y2="55.5" gradientUnits="userSpaceOnUse">
<stop stop-color="#14FF00" stop-opacity="0.55"/>
<stop offset="1" stop-color="#00F0FF" stop-opacity="0.62"/>
</linearGradient>
<linearGradient id="paint56_linear_1116_3002" x1="341" y1="26.5" x2="341" y2="49.5" gradientUnits="userSpaceOnUse">
<stop stop-color="#14FF00" stop-opacity="0.55"/>
<stop offset="1" stop-color="#00F0FF" stop-opacity="0.62"/>
</linearGradient>
<linearGradient id="paint57_linear_1116_3002" x1="347" y1="23.5" x2="347" y2="40.5" gradientUnits="userSpaceOnUse">
<stop stop-color="#14FF00" stop-opacity="0.55"/>
<stop offset="1" stop-color="#00F0FF" stop-opacity="0.62"/>
</linearGradient>
<linearGradient id="paint58_linear_1116_3002" x1="353" y1="21.5" x2="353" y2="34.5" gradientUnits="userSpaceOnUse">
<stop stop-color="#14FF00" stop-opacity="0.55"/>
<stop offset="1" stop-color="#00F0FF" stop-opacity="0.62"/>
</linearGradient>
<linearGradient id="paint59_linear_1116_3002" x1="359" y1="24.5" x2="359" y2="43.5" gradientUnits="userSpaceOnUse">
<stop stop-color="#14FF00" stop-opacity="0.55"/>
<stop offset="1" stop-color="#00F0FF" stop-opacity="0.62"/>
</linearGradient>
<linearGradient id="paint60_linear_1116_3002" x1="365" y1="21.5" x2="365" y2="34.5" gradientUnits="userSpaceOnUse">
<stop stop-color="#14FF00" stop-opacity="0.55"/>
<stop offset="1" stop-color="#00F0FF" stop-opacity="0.62"/>
</linearGradient>
<linearGradient id="paint61_linear_1116_3002" x1="371" y1="19.5" x2="371" y2="28.5" gradientUnits="userSpaceOnUse">
<stop stop-color="#14FF00" stop-opacity="0.55"/>
<stop offset="1" stop-color="#00F0FF" stop-opacity="0.62"/>
</linearGradient>
<linearGradient id="paint62_linear_1116_3002" x1="377" y1="20.5" x2="377" y2="31.5" gradientUnits="userSpaceOnUse">
<stop stop-color="#14FF00" stop-opacity="0.55"/>
<stop offset="1" stop-color="#00F0FF" stop-opacity="0.62"/>
</linearGradient>
<linearGradient id="paint63_linear_1116_3002" x1="383" y1="18.5" x2="383" y2="25.5" gradientUnits="userSpaceOnUse">
<stop stop-color="#14FF00" stop-opacity="0.55"/>
<stop offset="1" stop-color="#00F0FF" stop-opacity="0.62"/>
</linearGradient>
<linearGradient id="paint64_linear_1116_3002" x1="389" y1="21.5" x2="389" y2="34.5" gradientUnits="userSpaceOnUse">
<stop stop-color="#14FF00" stop-opacity="0.55"/>
<stop offset="1" stop-color="#00F0FF" stop-opacity="0.62"/>
</linearGradient>
<linearGradient id="paint65_linear_1116_3002" x1="395" y1="24.5" x2="395" y2="43.5" gradientUnits="userSpaceOnUse">
<stop stop-color="#14FF00" stop-opacity="0.55"/>
<stop offset="1" stop-color="#00F0FF" stop-opacity="0.62"/>
</linearGradient>
<linearGradient id="paint66_linear_1116_3002" x1="401" y1="21.5" x2="401" y2="34.5" gradientUnits="userSpaceOnUse">
<stop stop-color="#14FF00" stop-opacity="0.55"/>
<stop offset="1" stop-color="#00F0FF" stop-opacity="0.62"/>
</linearGradient>
<linearGradient id="paint67_linear_1116_3002" x1="405" y1="1.5" x2="405" y2="28.5" gradientUnits="userSpaceOnUse">
<stop stop-color="#14FF00" stop-opacity="0.55"/>
<stop offset="1" stop-color="#00F0FF" stop-opacity="0.62"/>
</linearGradient>
<linearGradient id="paint68_linear_1116_3002" x1="411" y1="3.5" x2="411" y2="26.5" gradientUnits="userSpaceOnUse">
<stop stop-color="#14FF00" stop-opacity="0.55"/>
<stop offset="1" stop-color="#00F0FF" stop-opacity="0.62"/>
</linearGradient>
<linearGradient id="paint69_linear_1116_3002" x1="417" y1="6.5" x2="417" y2="23.5" gradientUnits="userSpaceOnUse">
<stop stop-color="#14FF00" stop-opacity="0.55"/>
<stop offset="1" stop-color="#00F0FF" stop-opacity="0.62"/>
</linearGradient>
<linearGradient id="paint70_linear_1116_3002" x1="423" y1="8.5" x2="423" y2="21.5" gradientUnits="userSpaceOnUse">
<stop stop-color="#14FF00" stop-opacity="0.55"/>
<stop offset="1" stop-color="#00F0FF" stop-opacity="0.62"/>
</linearGradient>
<linearGradient id="paint71_linear_1116_3002" x1="429" y1="5.5" x2="429" y2="24.5" gradientUnits="userSpaceOnUse">
<stop stop-color="#14FF00" stop-opacity="0.55"/>
<stop offset="1" stop-color="#00F0FF" stop-opacity="0.62"/>
</linearGradient>
<linearGradient id="paint72_linear_1116_3002" x1="435" y1="8.5" x2="435" y2="21.5" gradientUnits="userSpaceOnUse">
<stop stop-color="#14FF00" stop-opacity="0.55"/>
<stop offset="1" stop-color="#00F0FF" stop-opacity="0.62"/>
</linearGradient>
<linearGradient id="paint73_linear_1116_3002" x1="441" y1="10.5" x2="441" y2="19.5" gradientUnits="userSpaceOnUse">
<stop stop-color="#14FF00" stop-opacity="0.55"/>
<stop offset="1" stop-color="#00F0FF" stop-opacity="0.62"/>
</linearGradient>
<linearGradient id="paint74_linear_1116_3002" x1="447" y1="9.5" x2="447" y2="20.5" gradientUnits="userSpaceOnUse">
<stop stop-color="#14FF00" stop-opacity="0.55"/>
<stop offset="1" stop-color="#00F0FF" stop-opacity="0.62"/>
</linearGradient>
<linearGradient id="paint75_linear_1116_3002" x1="453" y1="11.5" x2="453" y2="18.5" gradientUnits="userSpaceOnUse">
<stop stop-color="#14FF00" stop-opacity="0.55"/>
<stop offset="1" stop-color="#00F0FF" stop-opacity="0.62"/>
</linearGradient>
<linearGradient id="paint76_linear_1116_3002" x1="459" y1="12.5" x2="459" y2="17.5" gradientUnits="userSpaceOnUse">
<stop stop-color="#14FF00" stop-opacity="0.55"/>
<stop offset="1" stop-color="#00F0FF" stop-opacity="0.62"/>
</linearGradient>
<linearGradient id="paint77_linear_1116_3002" x1="465" y1="10.5" x2="465" y2="19.5" gradientUnits="userSpaceOnUse">
<stop stop-color="#14FF00" stop-opacity="0.55"/>
<stop offset="1" stop-color="#00F0FF" stop-opacity="0.62"/>
</linearGradient>
<linearGradient id="paint78_linear_1116_3002" x1="471" y1="4.5" x2="471" y2="25.5" gradientUnits="userSpaceOnUse">
<stop stop-color="#14FF00" stop-opacity="0.55"/>
<stop offset="1" stop-color="#00F0FF" stop-opacity="0.62"/>
</linearGradient>
<linearGradient id="paint79_linear_1116_3002" x1="477" y1="1.5" x2="477" y2="28.5" gradientUnits="userSpaceOnUse">
<stop stop-color="#14FF00" stop-opacity="0.55"/>
<stop offset="1" stop-color="#00F0FF" stop-opacity="0.62"/>
</linearGradient>
<linearGradient id="paint80_linear_1116_3002" x1="483" y1="1.5" x2="483" y2="28.5" gradientUnits="userSpaceOnUse">
<stop stop-color="#14FF00" stop-opacity="0.55"/>
<stop offset="1" stop-color="#00F0FF" stop-opacity="0.62"/>
</linearGradient>
<linearGradient id="paint81_linear_1116_3002" x1="489" y1="3.5" x2="489" y2="26.5" gradientUnits="userSpaceOnUse">
<stop stop-color="#14FF00" stop-opacity="0.55"/>
<stop offset="1" stop-color="#00F0FF" stop-opacity="0.62"/>
</linearGradient>
<linearGradient id="paint82_linear_1116_3002" x1="495" y1="6.5" x2="495" y2="23.5" gradientUnits="userSpaceOnUse">
<stop stop-color="#14FF00" stop-opacity="0.55"/>
<stop offset="1" stop-color="#00F0FF" stop-opacity="0.62"/>
</linearGradient>
<linearGradient id="paint83_linear_1116_3002" x1="501" y1="8.5" x2="501" y2="21.5" gradientUnits="userSpaceOnUse">
<stop stop-color="#14FF00" stop-opacity="0.55"/>
<stop offset="1" stop-color="#00F0FF" stop-opacity="0.62"/>
</linearGradient>
<clipPath id="clip0_1116_3002">
<rect width="504" height="30" fill="white"/>
</clipPath>
</defs>
</svg>
