<svg width="53" height="33" viewBox="0 0 53 33" fill="none" xmlns="http://www.w3.org/2000/svg">
<path fill-rule="evenodd" clip-rule="evenodd" d="M16.857 1.09215C18.597 0.992152 20.335 1.00015 22.075 1.00015C22.087 1.00015 30.892 1.00015 30.892 1.00015C32.666 1.00015 34.404 0.992152 36.143 1.09215C37.724 1.18215 39.264 1.37415 40.797 1.80315C44.024 2.70515 46.842 4.58915 48.879 7.26015C50.904 9.91415 52 13.1632 52 16.4992C52 19.8392 50.904 23.0862 48.879 25.7402C46.842 28.4102 44.024 30.2952 40.797 31.1972C39.264 31.6262 37.724 31.8172 36.143 31.9082C34.404 32.0082 32.666 31.9992 30.926 31.9992C30.914 31.9992 22.107 32.0002 22.107 32.0002C20.335 31.9992 18.597 32.0082 16.857 31.9082C15.277 31.8172 13.737 31.6262 12.204 31.1972C8.977 30.2952 6.159 28.4102 4.122 25.7402C2.097 23.0862 1 19.8392 1 16.5002C1 13.1632 2.097 9.91415 4.122 7.26015C6.159 4.58915 8.977 2.70515 12.204 1.80315C13.737 1.37415 15.277 1.18215 16.857 1.09215Z" fill="url(#paint0_linear_133_46676)" fill-opacity="0.4" stroke="url(#paint1_linear_133_46676)"/>
<path fill-rule="evenodd" clip-rule="evenodd" d="M36.5 30C43.9558 30 50 23.9558 50 16.5C50 9.04416 43.9558 3 36.5 3C29.0442 3 23 9.04416 23 16.5C23 23.9558 29.0442 30 36.5 30Z" fill="white"/>
<defs>
<linearGradient id="paint0_linear_133_46676" x1="3.66418" y1="27.5716" x2="52.6753" y2="25.4489" gradientUnits="userSpaceOnUse">
<stop stop-color="#038B98" stop-opacity="0.63"/>
<stop offset="0.703125" stop-color="#0FFB49" stop-opacity="0.59"/>
</linearGradient>
<linearGradient id="paint1_linear_133_46676" x1="26.5" y1="1" x2="26.5" y2="32.0002" gradientUnits="userSpaceOnUse">
<stop stop-color="#14FF00" stop-opacity="0.55"/>
<stop offset="1" stop-color="#00F0FF" stop-opacity="0.62"/>
</linearGradient>
</defs>
</svg>
