<svg width="53" height="33" viewBox="0 0 53 33" fill="none" xmlns="http://www.w3.org/2000/svg">
<path fill-rule="evenodd" clip-rule="evenodd" d="M36.143 31.9078C34.403 32.0078 32.665 31.9998 30.925 31.9998C30.913 31.9998 22.108 31.9998 22.108 31.9998C20.334 31.9998 18.596 32.0078 16.857 31.9078C15.276 31.8178 13.736 31.6258 12.203 31.1968C8.976 30.2948 6.158 28.4108 4.121 25.7398C2.096 23.0858 1 19.8368 1 16.5008C1 13.1608 2.096 9.91385 4.121 7.25985C6.158 4.58985 8.976 2.70485 12.203 1.80285C13.736 1.37385 15.276 1.18285 16.857 1.09185C18.596 0.991848 20.334 1.00085 22.074 1.00085C22.086 1.00085 30.893 0.999847 30.893 0.999847C32.665 1.00085 34.403 0.991848 36.143 1.09185C37.723 1.18285 39.263 1.37385 40.796 1.80285C44.023 2.70485 46.841 4.58985 48.878 7.25985C50.903 9.91385 52 13.1608 52 16.4998C52 19.8368 50.903 23.0858 48.878 25.7398C46.841 28.4108 44.023 30.2948 40.796 31.1968C39.263 31.6258 37.723 31.8178 36.143 31.9078Z" fill="url(#paint0_linear_133_47632)" fill-opacity="0.4" stroke="url(#paint1_linear_133_47632)"/>
<path fill-rule="evenodd" clip-rule="evenodd" d="M16.5 3C9.04416 3 3 9.04416 3 16.5C3 23.9558 9.04416 30 16.5 30C23.9558 30 30 23.9558 30 16.5C30 9.04416 23.9558 3 16.5 3Z" fill="white"/>
<defs>
<linearGradient id="paint0_linear_133_47632" x1="49.3358" y1="5.42844" x2="0.324739" y2="7.55105" gradientUnits="userSpaceOnUse">
<stop stop-color="#038B98" stop-opacity="0.63"/>
<stop offset="0.703125" stop-color="#0FFB49" stop-opacity="0.59"/>
</linearGradient>
<linearGradient id="paint1_linear_133_47632" x1="26.5" y1="32" x2="26.5" y2="0.999847" gradientUnits="userSpaceOnUse">
<stop stop-color="#14FF00" stop-opacity="0.55"/>
<stop offset="1" stop-color="#00F0FF" stop-opacity="0.62"/>
</linearGradient>
</defs>
</svg>
